<?xml version="1.0" encoding="UTF-8" standalone="no"?>
<svg
   xmlns:dc="http://purl.org/dc/elements/1.1/"
   xmlns:cc="http://creativecommons.org/ns#"
   xmlns:rdf="http://www.w3.org/1999/02/22-rdf-syntax-ns#"
   xmlns:svg="http://www.w3.org/2000/svg"
   xmlns="http://www.w3.org/2000/svg"
   viewBox="0 0 226.54668 198.29333"
   height="198.29333"
   width="226.54668"
   xml:space="preserve"
   id="svg2"
   version="1.1"><metadata
     id="metadata8"><rdf:RDF><cc:Work
         rdf:about=""><dc:format>image/svg+xml</dc:format><dc:type
           rdf:resource="http://purl.org/dc/dcmitype/StillImage" /></cc:Work></rdf:RDF></metadata><defs
     id="defs6" /><g
     transform="matrix(1.3333333,0,0,-1.3333333,0,198.29333)"
     id="g10"><g
       transform="scale(0.1)"
       id="g12"><path
         id="path14"
         style="fill:none;stroke:#cfd0d0;stroke-width:50;stroke-linecap:round;stroke-linejoin:round;stroke-miterlimit:4;stroke-dasharray:none;stroke-opacity:1"
         d="M 1360.7,517.781 H 370.172 c -77,0 -140,62.996 -140,139.996 v 664.403 c 0,77 63,140 140,140 H 1360.7 c 77,0 140,-63 140,-140 V 657.777 c 0,-77 -63,-139.996 -140,-139.996 z" /><path
         id="path16"
         style="fill:none;stroke:#cfd0d0;stroke-width:50;stroke-linecap:round;stroke-linejoin:round;stroke-miterlimit:4;stroke-dasharray:none;stroke-opacity:1"
         d="m 566.68,1200.98 c 0,-43.15 -34.985,-78.13 -78.133,-78.13 -43.152,0 -78.137,34.98 -78.137,78.13 0,43.16 34.985,78.14 78.137,78.14 43.148,0 78.133,-34.98 78.133,-78.14 z" /><path
         id="path18"
         style="fill:#cfd0d0;fill-opacity:1;fill-rule:nonzero;stroke:none"
         d="m 233.668,624.281 290.863,290.864 c 24.918,24.918 65.692,24.918 90.61,0 L 738.254,792.031 1035.11,1095.29 c 24.92,24.92 65.7,24.92 90.61,0 l 368.57,-368.567 c 0,0 22.12,-120.618 -37.73,-170.496 -59.86,-49.883 -95.86,-38.446 -95.86,-38.446 H 370.172 c 0,0 -102.387,1.637 -136.504,106.5" /><path
         id="path20"
         style="fill:none;stroke:#cfd0d0;stroke-width:50;stroke-linecap:round;stroke-linejoin:round;stroke-miterlimit:4;stroke-dasharray:none;stroke-opacity:1"
         d="m 233.668,624.281 290.863,290.864 c 24.918,24.918 65.692,24.918 90.61,0 L 738.254,792.031 1035.11,1095.29 c 24.92,24.92 65.7,24.92 90.61,0 l 368.57,-368.567 c 0,0 22.12,-120.618 -37.73,-170.496 -59.86,-49.883 -95.86,-38.446 -95.86,-38.446 H 370.172 c 0,0 -102.387,1.637 -136.504,106.5 z" /><path
         id="path22"
         style="fill:#cfd0d0;fill-opacity:1;fill-rule:nonzero;stroke:none"
         d="M 144.629,1.98047 35.7422,167.789 V 1.98047 H 0 V 237.621 H 32.7656 L 141.648,72.1406 V 237.621 h 35.747 V 1.98047 h -32.766" /><path
         id="path24"
         style="fill:#cfd0d0;fill-opacity:1;fill-rule:nonzero;stroke:none"
         d="m 383.238,192.941 c -8.273,8.938 -21.183,14.571 -35.086,14.571 -13.894,0 -26.804,-5.633 -35.078,-14.571 -11.586,-12.57 -13.898,-25.82 -13.898,-73.14 0,-47.3205 2.312,-60.5705 13.898,-73.1408 8.274,-8.9414 21.184,-14.5586 35.078,-14.5586 13.903,0 26.813,5.6172 35.086,14.5586 11.586,12.5703 13.903,25.8203 13.903,73.1408 0,47.32 -2.317,60.57 -13.903,73.14 z M 410.375,25.1406 C 394.16,8.92969 373.313,0 348.152,0 323.004,0 302.484,8.92969 286.266,25.1406 263.102,48.3203 263.43,74.4609 263.43,119.801 c 0,45.34 -0.328,71.48 22.836,94.66 16.218,16.211 36.738,25.148 61.886,25.148 25.161,0 46.008,-8.937 62.223,-25.148 23.172,-23.18 22.508,-49.32 22.508,-94.66 0,-45.3401 0.664,-71.4807 -22.508,-94.6604" /><path
         id="path26"
         style="fill:#cfd0d0;fill-opacity:1;fill-rule:nonzero;stroke:none"
         d="M 631.445,1.98047 V 237.621 h 35.743 V 1.98047 h -35.743" /><path
         id="path28"
         style="fill:#cfd0d0;fill-opacity:1;fill-rule:nonzero;stroke:none"
         d="M 933.938,1.98047 V 159.52 L 879.656,44.6719 H 853.184 L 797.578,159.52 V 1.98047 H 761.836 V 237.621 h 35.742 l 68.84,-146.6093 67.52,146.6093 H 969.68 V 1.98047 h -35.742" /><path
         id="path30"
         style="fill:#cfd0d0;fill-opacity:1;fill-rule:nonzero;stroke:none"
         d="M 1137.46,184.34 1100.72,79.75 h 72.48 z M 1199.35,1.98047 1183.13,49.3008 h -93 L 1073.92,1.98047 h -38.07 l 86.39,235.64053 h 28.79 L 1237.41,1.98047 h -38.06" /><path
         id="path32"
         style="fill:#cfd0d0;fill-opacity:1;fill-rule:nonzero;stroke:none"
         d="M 1441.6,26.8008 C 1423.73,7.94141 1401.55,0 1376.74,0 c -24.49,0 -45.68,8.92969 -61.9,25.1406 -23.16,23.1797 -22.83,49.3203 -22.83,94.6604 0,45.34 -0.33,71.48 22.83,94.66 16.22,16.211 36.74,25.148 61.9,25.148 49.97,0 79.1,-32.769 85.71,-73.14 h -36.07 c -5.96,25.812 -23.17,41.043 -49.64,41.043 -13.91,0 -26.49,-5.633 -34.76,-14.571 -11.58,-12.57 -14.23,-25.82 -14.23,-73.14 0,-47.3205 2.65,-60.9026 14.23,-73.4807 8.27,-8.9297 20.85,-14.2187 34.76,-14.2187 15.55,0 29.12,5.9492 38.39,16.5468 8.6,9.9219 11.91,21.8321 11.91,37.0625 v 13.2383 h -50.3 v 30.4488 h 86.04 V 93.332 c 0,-30.4531 -5.62,-49.9804 -21.18,-66.5312" /><path
         id="path34"
         style="fill:#cfd0d0;fill-opacity:1;fill-rule:nonzero;stroke:none"
         d="M 1548.49,1.98047 V 237.621 h 150.58 V 205.52 h -114.84 v -68.84 h 97.97 v -31.77 h -97.97 V 34.082 h 114.84 V 1.98047 h -150.58" /></g></g></svg>